inDegrees=no
num_controls=7
num_derivatives=13
num_iterations=102
num_multipliers=7
num_parameters=0
num_slacks=7
num_states=26
objective=0.516986
objective_accelerations=0.039583
objective_balance=0.002172
objective_effort=0.043786
objective_height=0.419803
objective_ligament=0.011642
solver_duration=1356.361811
status=Solve_Succeeded
success=true
DataType=double
version=3
OpenSimVersion=4.5
endheader
time	/jointset/ground_pelvis/pelvis_tilt/value	/jointset/ground_pelvis/pelvis_tx/value	/jointset/ground_pelvis/pelvis_ty/value	/jointset/hip_l/hip_flexion_l/value	/jointset/hip_l/hip_adduction_l/value	/jointset/hip_l/hip_rotation_l/value	/jointset/back/lumbar_extension/value	/jointset/patellofemoral_l/patellar_flexion_l/value	/jointset/knee_l/knee_flexion_l/value	/jointset/knee_l/knee_adduction_l/value	/jointset/knee_l/knee_rotation_l/value	/jointset/ankle_l/ankle_angle_l/value	/jointset/subtalar_l/subtalar_angle_l/value	/jointset/ground_pelvis/pelvis_tilt/speed	/jointset/ground_pelvis/pelvis_tx/speed	/jointset/ground_pelvis/pelvis_ty/speed	/jointset/hip_l/hip_flexion_l/speed	/jointset/hip_l/hip_adduction_l/speed	/jointset/hip_l/hip_rotation_l/speed	/jointset/back/lumbar_extension/speed	/jointset/patellofemoral_l/patellar_flexion_l/speed	/jointset/knee_l/knee_flexion_l/speed	/jointset/knee_l/knee_adduction_l/speed	/jointset/knee_l/knee_rotation_l/speed	/jointset/ankle_l/ankle_angle_l/speed	/jointset/subtalar_l/subtalar_angle_l/speed	/forceset/tau_hip_flexion_l	/forceset/tau_hip_adduction_l	/forceset/tau_hip_rotation_l	/forceset/tau_knee_flexion_l	/forceset/tau_ankle_angle_l	/forceset/tau_subtalar_angle_l	/forceset/tau_lumbar_extension	lambda_cid13_p0	lambda_cid13_p1	lambda_cid13_p2	lambda_cid13_p3	lambda_cid13_p4	lambda_cid13_p5	lambda_cid14_p0	/jointset/ground_pelvis/pelvis_tilt/accel	/jointset/ground_pelvis/pelvis_tx/accel	/jointset/ground_pelvis/pelvis_ty/accel	/jointset/hip_l/hip_flexion_l/accel	/jointset/hip_l/hip_adduction_l/accel	/jointset/hip_l/hip_rotation_l/accel	/jointset/back/lumbar_extension/accel	/jointset/patellofemoral_l/patellar_flexion_l/accel	/jointset/knee_l/knee_flexion_l/accel	/jointset/knee_l/knee_adduction_l/accel	/jointset/knee_l/knee_rotation_l/accel	/jointset/ankle_l/ankle_angle_l/accel	/jointset/subtalar_l/subtalar_angle_l/accel	gamma_cid13_p0	gamma_cid13_p1	gamma_cid13_p2	gamma_cid13_p3	gamma_cid13_p4	gamma_cid13_p5	gamma_cid14_p0
0	-0.03677081380094964	0.05665479559721851	0.920342529774151	0.3085816938045678	-0.2956251873850325	-0.3012761120631862	-0.3879492264334186	0.2499269421185581	0.2499269421184919	-0.1745323633644237	-0.1742077433117806	-0.0008036623358878681	0.000449198695402234	0	0	0	0	0	0	0	0	0	0	0	0	0	0.07921741017786746	-0.02884809455146851	-0.02015303137463145	-0.2424190952439008	0.1791970454368392	-0.03048175940504322	-0.005450199104055888	13.01210458318141	8.128221611668341	1.484292811704782	21.47823617081372	-624.1828057232245	-59.74706561479482	-23.1859176848089	-1.476166963276393	-2.356108906268963	-0.8867275126344691	9.176170182590335	-0.6119106376713633	2.681057867757027	-7.650355708000892	7.552235137899691	7.552235137899418	1.142899574483896	-0.06327881648064344	0.2645588255736852	-0.5757034695861608	2.816564545282961e-08	1.165510525114485e-07	6.13629824259773e-08	-4.52142606254574e-08	2.478905562809361e-07	5.368826321445668e-08	-2.939479999212597e-09
0.01	-0.0368386187965699	0.0565409375878217	0.9202996742062586	0.3090241239666273	-0.2956553986376515	-0.3011422928030881	-0.3883214008938539	0.2502967548393048	0.2502967548392117	-0.1744771152173844	-0.1742084228949305	-0.0007879690238530657	0.0004216670429918522	-0.01326916193535982	-0.02239634803105739	-0.008482030615708411	0.08748525902786052	-0.005950478385240334	0.02659757214993712	-0.07307689796349354	0.07361591674119453	0.07361591674119436	0.01112399329762654	-0.0001293008356419444	0.003531965924647943	-0.005273349190018311	0.06145515519362742	-0.03099496927150478	-0.01790601577956452	-0.226214748472748	0.1615780202427689	-0.01727845828870952	0.01090082603695025	7.650564697877276	3.293289845393855	2.300237272045777	20.2391055088741	-630.40489713539	-67.96303645702791	-23.19019490482445	-1.208524849818883	-2.125118721321084	-0.8155288135598285	8.384583217313388	-0.5728735850246521	2.624159543474083	-6.932657718802798	7.214276421039737	7.214276421039969	1.108325776020837	0.01324487834633389	0.4565177244575344	-0.4682299037600482	-3.181580308750051e-09	1.358246360845011e-07	7.215311365295045e-08	3.272418386894282e-09	5.650695092992705e-08	1.790060443832562e-08	2.440772618235379e-09
0.02	-0.03703036221985212	0.0562143719041509	0.9201746807367033	0.3103113826097946	-0.2957423661033324	-0.3007474872905086	-0.3893836045096024	0.2513923280231466	0.2513923280231471	-0.1743083918236007	-0.1742101953674438	-0.0007251556028638007	0.0003483860466710137	-0.02478768551649962	-0.04254153485480004	-0.01642758033257008	0.1689656962329088	-0.01135124261345056	0.05219725049433448	-0.1380058310579247	0.145152092634807	0.1451520926348078	0.02269504934000632	-0.0002185778531944915	0.009424021791166406	-0.009149868782057546	0.04369290020928481	-0.03314184399153986	-0.01565900018391524	-0.2100104017017793	0.143958995048663	-0.004075157172394486	0.02725185117791943	2.347593906434821	-1.549387333843969	3.114549952462479	18.95640847405229	-635.7198128966589	-76.10454735247514	-23.20271977185253	-1.126039292430608	-1.905876664807514	-0.7794313328651419	7.975205818028059	-0.5019678062652799	2.481479106648954	-6.020762734187376	7.136286968383621	7.136286968383567	1.232312123434777	-0.05527405286301361	0.7365768139461751	-0.2963375499908416	-3.45288060703297e-08	1.550982196575536e-07	8.29432448799236e-08	5.175909739924596e-08	-1.34876654421082e-07	-1.788705433780545e-08	7.821025235683355e-09
0.03	-0.03733210563131852	0.055693983318452	0.919971839494623	0.3123923762978661	-0.2958817838952294	-0.3001009275751325	-0.3910678289590298	0.253193689578831	0.2531936895787721	-0.1740241890309764	-0.1742128644027426	-0.000597025748556985	0.000240209129024971	-0.03559501529940669	-0.06152088857498417	-0.02415270582184304	0.2470629714499562	-0.01656952612699687	0.07700569237454692	-0.198858171688952	0.2148194209877481	0.2148194209877476	0.03394374454160288	-0.0003401362476812914	0.01604140535525093	-0.01257861993695728	0.04441113225334118	-0.0295063056104114	-0.0159273276805412	-0.2125454362243551	0.148521362713335	-0.008805385894815653	0.02675644703261399	3.664916388578477	0.2662829048081824	2.834237178259431	18.49534055500445	-635.0900813101166	-72.24161150568639	-23.2229442003995	-1.063183670347501	-1.891660125305891	-0.7708865663551002	7.7014734060509	-0.5373729116871664	2.464171282788127	-6.120336653880586	6.836834557305812	6.836834557305752	1.040917693367809	0.005676509711256466	0.6002389635029846	-0.3801433650120456	-4.692513781327025e-08	8.102452351760619e-08	1.61947905423314e-07	4.638383368580409e-08	-1.624711420654944e-07	-6.105783777222093e-08	-1.116410574633477e-08
0.04	-0.0377429431105222	0.05498426211561099	0.9196913803157688	0.3152492397445714	-0.2960745073798151	-0.2992095545301353	-0.3933611502000519	0.2556827001757058	0.2556827001757047	-0.1736335453913812	-0.17421749437356	-0.0004075380914395082	9.494480647516294e-05	-0.04660649904706275	-0.08040805828321984	-0.03195116768736469	0.3241396479673128	-0.02201238115207035	0.1011599164179748	-0.2598251893725675	0.2826819008829484	0.2826819008829473	0.0439832187370409	-0.0006107649440598867	0.02169558235385451	-0.01656734976275841	0.04512936429751113	-0.02587076722923036	-0.01619565517678241	-0.2150804707469398	0.1530837303780342	-0.01353561461717858	0.02626104288737044	5.03685971287368	2.075089430345455	2.551934079367236	17.9837666384697	-633.6298659976791	-68.30699546856337	-23.2504021633087	-1.166870085378665	-1.88743986241922	-0.7940986081148996	7.771086078090045	-0.5468821085706252	2.350635539291913	-6.043698144703999	6.775317276835755	6.775317276835869	0.9904679222033416	-0.08508811324160166	0.5439355008484862	-0.4083332841715519	-5.893072947335225e-08	5.026141198009294e-09	2.423590511072493e-07	3.989801445224276e-08	-1.866885344994614e-07	-1.043808505810341e-07	-3.065161577164086e-08
0.05	-0.03826355524049728	0.0540881946328223	0.9193329561865673	0.3188674340544387	-0.2963214827207846	-0.2980811541901804	-0.3962567568958227	0.2588405041830728	0.2588405041830482	-0.1731462011055933	-0.1742258087400173	-0.0001634760088886828	-9.066376911855153e-05	-0.05739576045454767	-0.09858576150969339	-0.03970528177704143	0.3988957027644387	-0.02729088614503137	0.1243890690945455	-0.3185437447345533	0.3485158039936823	0.3485158039936816	0.0535165029798138	-0.001007104598254567	0.02725642935405551	-0.02041023786949065	0.03525179296403035	-0.02303332932343774	-0.01510766848957439	-0.2080437953742006	0.1471033025505415	-0.01076830231880105	0.03534395026858113	3.185449651371197	1.165238866760123	2.733740971154631	16.90120854233	-635.7810465261954	-68.92175282631783	-23.2844780991594	-1.016931641691035	-1.749976114474852	-0.7618488864615892	7.237332078313283	-0.5045894808167261	2.289352783886572	-5.673073472292335	6.432968627515854	6.432968627515941	0.9394087743182494	-0.01011219880825161	0.5830981528613929	-0.3506760288266341	-6.840661199511533e-08	3.702248023180015e-08	2.424467671646761e-07	6.042691902371169e-08	-2.488061274491823e-07	-1.053883216947334e-07	-2.530688913949996e-08
